<svg width="44" height="62" viewBox="0 0 44 62" fill="none" xmlns="http://www.w3.org/2000/svg">
<path d="M11.0074 18.3327V9.16602M20.1741 18.3327V9.16602M29.3407 18.3327V10.0827M9.19607 31.166C6.59274 31.166 5.29107 31.166 4.48257 30.3593C3.67407 29.5545 3.67407 28.2583 3.67407 25.666V14.666C3.67407 12.0737 3.67407 10.7775 4.48257 9.97268C5.29107 9.16785 6.59274 9.16602 9.19607 9.16602H22.1852C28.5524 9.16602 31.7369 9.16602 34.1752 10.4603C35.9682 11.4137 37.4642 12.8437 38.4946 14.589C39.8952 16.9595 40.0272 20.1275 40.2912 26.4653C40.3646 28.174 40.4012 29.0284 40.0657 29.6737C39.8201 30.1504 39.4424 30.5427 38.9749 30.8067C38.3406 31.166 37.4826 31.166 35.7666 31.166H34.8407M16.5074 31.166H27.5074" stroke="#C2A68C" stroke-width="2.2" stroke-linecap="round" stroke-linejoin="round"/>
<path d="M12.8407 34.8333C13.8132 34.8333 14.7458 34.447 15.4335 33.7594C16.1211 33.0718 16.5074 32.1391 16.5074 31.1667C16.5074 30.1942 16.1211 29.2616 15.4335 28.5739C14.7458 27.8863 13.8132 27.5 12.8407 27.5C11.8683 27.5 10.9356 27.8863 10.248 28.5739C9.56038 29.2616 9.17407 30.1942 9.17407 31.1667C9.17407 32.1391 9.56038 33.0718 10.248 33.7594C10.9356 34.447 11.8683 34.8333 12.8407 34.8333ZM31.1741 34.8333C32.1465 34.8333 33.0792 34.447 33.7668 33.7594C34.4544 33.0718 34.8407 32.1391 34.8407 31.1667C34.8407 30.1942 34.4544 29.2616 33.7668 28.5739C33.0792 27.8863 32.1465 27.5 31.1741 27.5C30.2016 27.5 29.269 27.8863 28.5813 28.5739C27.8937 29.2616 27.5074 30.1942 27.5074 31.1667C27.5074 32.1391 27.8937 33.0718 28.5813 33.7594C29.269 34.447 30.2016 34.8333 31.1741 34.8333Z" stroke="#C2A68C" stroke-width="2.2"/>
<path d="M3.65942 18.333H28.1674C29.3169 18.333 29.7074 19.0077 30.5874 20.0637C31.5994 21.0537 32.2833 21.7485 33.2274 21.8897C34.5474 22.0877 39.4314 21.9887 39.4314 21.9887" stroke="#C2A68C" stroke-width="2.2" stroke-linecap="round"/>
<path d="M2.71333 50.8893C2.85022 50.9089 2.96267 50.9187 3.05067 50.9187C3.13867 50.9187 3.23156 50.9187 3.32933 50.9187C3.85733 50.9187 4.27778 50.8209 4.59067 50.6253C4.90356 50.4298 5.06 50.1707 5.06 49.848C5.06 49.5547 4.92311 49.3298 4.64933 49.1733C4.38533 49.0169 3.99422 48.9387 3.476 48.9387C3.30978 48.9387 3.15822 48.9484 3.02133 48.968C2.89422 48.9778 2.79156 48.9973 2.71333 49.0267V50.8893ZM0.410667 59C0.420444 58.5502 0.425333 58.1151 0.425333 57.6947C0.435111 57.2644 0.44 56.844 0.44 56.4333C0.449778 56.0129 0.454667 55.5924 0.454667 55.172C0.454667 54.7516 0.454667 54.3164 0.454667 53.8667C0.454667 52.5858 0.444889 51.3587 0.425333 50.1853C0.415556 49.012 0.391111 47.9658 0.352 47.0467C0.899556 46.9684 1.46178 46.9147 2.03867 46.8853C2.61556 46.8462 3.13378 46.8267 3.59333 46.8267C6.31156 46.8267 7.67067 47.6138 7.67067 49.188C7.67067 49.804 7.48978 50.332 7.128 50.772C6.776 51.2022 6.30667 51.4662 5.72 51.564C6.66844 51.74 7.36267 52.1067 7.80267 52.664C8.24267 53.2116 8.46267 53.9889 8.46267 54.996C8.46267 56.4138 8.02267 57.4649 7.14267 58.1493C6.26267 58.824 4.89378 59.1613 3.036 59.1613C2.67422 59.1613 2.26844 59.1467 1.81867 59.1173C1.37867 59.0978 0.909333 59.0587 0.410667 59ZM2.71333 55.0547C2.81111 55.084 2.95778 55.1084 3.15333 55.128C3.34889 55.1476 3.53956 55.1573 3.72533 55.1573C4.34133 55.1573 4.80578 55.0596 5.11867 54.864C5.44133 54.6684 5.60267 54.3898 5.60267 54.028C5.60267 53.6564 5.43156 53.3729 5.08933 53.1773C4.75689 52.9818 4.29244 52.884 3.696 52.884C3.56889 52.884 3.42711 52.8889 3.27067 52.8987C3.124 52.9084 2.93822 52.9231 2.71333 52.9427V55.0547ZM16.8664 46.988C16.886 48.4156 16.9153 49.6524 16.9544 50.6987C16.9935 51.7351 17.0131 52.62 17.0131 53.3533C17.0131 53.8324 16.9984 54.3116 16.9691 54.7907C16.9398 55.26 16.8762 55.7098 16.7784 56.14C16.6807 56.5702 16.5389 56.9711 16.3531 57.3427C16.1771 57.7044 15.9375 58.0222 15.6344 58.296C15.3411 58.5698 14.9744 58.7849 14.5344 58.9413C14.0944 59.088 13.5713 59.1613 12.9651 59.1613C12.3393 59.1613 11.8015 59.0831 11.3518 58.9267C10.9118 58.7604 10.5402 58.5404 10.2371 58.2667C9.93399 57.9929 9.68955 57.6702 9.50377 57.2987C9.32777 56.9173 9.19088 56.5116 9.0931 56.0813C8.99533 55.6511 8.93177 55.2062 8.90244 54.7467C8.8731 54.2871 8.85844 53.8276 8.85844 53.368C8.85844 53.0062 8.86333 52.62 8.8731 52.2093C8.88288 51.7987 8.89755 51.3391 8.9171 50.8307C8.93666 50.3222 8.95622 49.7551 8.97577 49.1293C9.0051 48.5036 9.03444 47.7947 9.06377 47.0027H11.6451C11.6158 47.8827 11.5913 48.6307 11.5718 49.2467C11.5522 49.8529 11.5327 50.3613 11.5131 50.772C11.5033 51.1827 11.4935 51.5102 11.4838 51.7547C11.4838 51.9893 11.4789 52.1702 11.4691 52.2973C11.4691 52.4244 11.4691 52.5173 11.4691 52.576C11.4691 52.6249 11.4691 52.664 11.4691 52.6933C11.4691 53.6418 11.5767 54.3556 11.7918 54.8347C12.0069 55.3138 12.3931 55.5533 12.9504 55.5533C13.5175 55.5533 13.8989 55.2942 14.0944 54.776C14.2998 54.2578 14.4024 53.4707 14.4024 52.4147C14.4024 52.3658 14.4024 52.312 14.4024 52.2533C14.4024 52.1849 14.3975 52.0822 14.3878 51.9453C14.3878 51.8084 14.3829 51.6276 14.3731 51.4027C14.3731 51.168 14.3633 50.86 14.3438 50.4787C14.334 50.0876 14.3193 49.6133 14.2998 49.056C14.2802 48.4889 14.2558 47.8044 14.2264 47.0027L16.8664 46.988ZM17.5657 49.98C17.5657 49.3542 17.6831 48.8409 17.9177 48.44C18.1622 48.0293 18.4653 47.7067 18.8271 47.472C19.1986 47.2276 19.6044 47.0613 20.0444 46.9733C20.4942 46.8756 20.9244 46.8267 21.3351 46.8267C21.4524 46.8267 21.5991 46.8316 21.7751 46.8413C21.9609 46.8511 22.1515 46.8658 22.3471 46.8853C22.5524 46.9049 22.7577 46.9342 22.9631 46.9733C23.1782 47.0027 23.3786 47.0467 23.5644 47.1053C23.584 47.3596 23.5986 47.5991 23.6084 47.824C23.6182 48.0391 23.6231 48.2884 23.6231 48.572C23.6231 48.8556 23.6182 49.1293 23.6084 49.3933C23.5986 49.6476 23.584 49.892 23.5644 50.1267C23.4862 50.1169 23.3835 50.1022 23.2564 50.0827C23.1391 50.0631 23.012 50.0484 22.8751 50.0387C22.748 50.0289 22.616 50.0191 22.4791 50.0093C22.352 49.9996 22.2297 49.9947 22.1124 49.9947C21.6431 49.9947 21.3009 50.068 21.0857 50.2147C20.8706 50.3613 20.7631 50.5618 20.7631 50.816C20.7631 50.9627 20.7973 51.1044 20.8657 51.2413C20.9342 51.3684 21.0222 51.4907 21.1297 51.608C21.2471 51.7253 21.3742 51.8378 21.5111 51.9453C21.6577 52.0529 21.8044 52.1556 21.9511 52.2533C22.1857 52.4196 22.4204 52.6053 22.6551 52.8107C22.8995 53.0062 23.1195 53.2458 23.3151 53.5293C23.5106 53.8031 23.672 54.1258 23.7991 54.4973C23.9262 54.8591 23.9897 55.2796 23.9897 55.7587C23.9897 56.3844 23.8822 56.9124 23.6671 57.3427C23.452 57.7729 23.1733 58.1249 22.8311 58.3987C22.4986 58.6627 22.1222 58.8582 21.7017 58.9853C21.2911 59.1027 20.8804 59.1613 20.4697 59.1613C20.284 59.1613 20.0542 59.1467 19.7804 59.1173C19.5164 59.0978 19.2475 59.0636 18.9737 59.0147C18.7 58.9756 18.4409 58.9267 18.1964 58.868C17.952 58.7996 17.7564 58.7213 17.6097 58.6333C17.5706 58.4573 17.5364 58.2764 17.5071 58.0907C17.4875 57.9049 17.4777 57.6996 17.4777 57.4747C17.4777 57.3182 17.4826 57.1276 17.4924 56.9027C17.512 56.6778 17.5315 56.448 17.5511 56.2133C17.5706 55.9787 17.5902 55.7538 17.6097 55.5387C17.6391 55.3236 17.6635 55.1427 17.6831 54.996C17.7906 55.0547 17.9471 55.1231 18.1524 55.2013C18.3577 55.2698 18.5777 55.3382 18.8124 55.4067C19.0569 55.4751 19.3013 55.5338 19.5457 55.5827C19.7902 55.6316 20.0053 55.656 20.1911 55.656C20.504 55.656 20.7386 55.5924 20.8951 55.4653C21.0515 55.3284 21.1297 55.1476 21.1297 54.9227C21.1297 54.6782 21.0417 54.4631 20.8657 54.2773C20.6897 54.0818 20.4697 53.8911 20.2057 53.7053C19.9417 53.5196 19.6533 53.324 19.3404 53.1187C19.0373 52.9036 18.7537 52.6542 18.4897 52.3707C18.2257 52.0871 18.0057 51.7547 17.8297 51.3733C17.6537 50.9822 17.5657 50.5178 17.5657 49.98ZM25.7932 56.008C26.0376 56.008 26.2527 56.0569 26.4385 56.1547C26.6341 56.2524 26.7954 56.3796 26.9225 56.536C27.0594 56.6827 27.1621 56.8489 27.2305 57.0347C27.2989 57.2107 27.3332 57.3818 27.3332 57.548C27.3332 57.7631 27.2892 57.9684 27.2012 58.164C27.1229 58.3596 27.0105 58.5307 26.8638 58.6773C26.7269 58.824 26.5607 58.9413 26.3652 59.0293C26.1794 59.1173 25.9838 59.1613 25.7785 59.1613C25.5145 59.1613 25.2847 59.1173 25.0892 59.0293C24.8936 58.9511 24.7323 58.8436 24.6052 58.7067C24.4781 58.56 24.3803 58.3987 24.3118 58.2227C24.2532 58.0467 24.2238 57.8658 24.2238 57.68C24.2238 57.4844 24.2581 57.2889 24.3265 57.0933C24.3949 56.888 24.4927 56.7071 24.6198 56.5507C24.7567 56.3844 24.9229 56.2524 25.1185 56.1547C25.3141 56.0569 25.5389 56.008 25.7932 56.008ZM28.9377 54.8493V52.4733C28.9377 51.8476 28.9328 51.3147 28.923 50.8747C28.923 50.4347 28.923 50.0289 28.923 49.6573H27.8377C27.8279 49.4324 27.8181 49.2124 27.8083 48.9973C27.7986 48.7822 27.7937 48.5622 27.7937 48.3373C27.7937 48.1124 27.7986 47.8876 27.8083 47.6627C27.8181 47.4378 27.8279 47.2178 27.8377 47.0027H32.355C32.3648 47.2276 32.3697 47.4524 32.3697 47.6773C32.3697 47.8924 32.3697 48.1124 32.3697 48.3373C32.3697 48.5622 32.3697 48.7822 32.3697 48.9973C32.3697 49.2124 32.3648 49.4324 32.355 49.6573H31.2843C31.2648 50.3124 31.2501 50.9578 31.2403 51.5933C31.2403 52.2289 31.2403 52.9378 31.2403 53.72V54.8493H32.355C32.3648 55.2013 32.3697 55.5484 32.3697 55.8907C32.3697 56.2329 32.3697 56.58 32.3697 56.932C32.3697 57.2742 32.3697 57.6213 32.3697 57.9733C32.3697 58.3156 32.3648 58.6578 32.355 59H27.8377C27.8279 58.6578 27.8181 58.3156 27.8083 57.9733C27.7986 57.6213 27.7937 57.2742 27.7937 56.932C27.7937 56.58 27.7986 56.2329 27.8083 55.8907C27.8181 55.5484 27.8279 55.2013 27.8377 54.8493H28.9377ZM37.0433 46.8267C38.5002 46.8267 39.5757 47.3449 40.27 48.3813C40.9642 49.4178 41.3113 50.9236 41.3113 52.8987C41.3113 54.9031 40.9691 56.448 40.2846 57.5333C39.61 58.6187 38.5295 59.1613 37.0433 59.1613C36.31 59.1613 35.6744 59.0244 35.1366 58.7507C34.5989 58.4671 34.154 58.0613 33.802 57.5333C33.45 56.9956 33.1909 56.3404 33.0246 55.568C32.8584 54.7858 32.7753 53.896 32.7753 52.8987C32.7753 50.8942 33.1224 49.3836 33.8166 48.3667C34.5109 47.34 35.5864 46.8267 37.0433 46.8267ZM37.0433 55.3773C37.3562 55.3773 37.63 55.3089 37.8646 55.172C38.1091 55.0253 38.3095 54.8298 38.466 54.5853C38.6224 54.3311 38.7397 54.0329 38.818 53.6907C38.8962 53.3387 38.9353 52.9524 38.9353 52.532C38.9353 52.1116 38.8962 51.7253 38.818 51.3733C38.7397 51.0116 38.6224 50.6987 38.466 50.4347C38.3095 50.1707 38.1091 49.9653 37.8646 49.8187C37.63 49.672 37.3562 49.5987 37.0433 49.5987C36.7304 49.5987 36.4566 49.6769 36.222 49.8333C35.9971 49.98 35.8015 50.1853 35.6353 50.4493C35.4789 50.7133 35.3615 51.0262 35.2833 51.388C35.2051 51.74 35.166 52.1213 35.166 52.532C35.166 52.9524 35.2051 53.3387 35.2833 53.6907C35.3615 54.0329 35.4789 54.3311 35.6353 54.5853C35.8015 54.8298 35.9971 55.0253 36.222 55.172C36.4566 55.3089 36.7304 55.3773 37.0433 55.3773Z" fill="#5D866C"/>
</svg>
